<svg xmlns="http://www.w3.org/2000/svg" width="36.5" height="25.657" viewBox="0 0 36.5 25.657">
  <g id="Outline_Color" data-name="Outline Color" transform="translate(-6 -80.265)">
    <g id="Color" transform="translate(6.438 80.705)">
      <path id="Pfad_28519" data-name="Pfad 28519" d="M15.475,91.453h12.6a.873.873,0,0,0,.869-.876v-.995A3.258,3.258,0,0,1,33.934,86.8l11.09,7.018a5.62,5.62,0,0,1,.021,9.465l-11.432,7.305A3.041,3.041,0,0,1,28.943,108v-1.941H15.475a3.49,3.49,0,0,1-3.476-3.5v-7.6A3.49,3.49,0,0,1,15.475,91.453Z" transform="translate(-12 -86.292)" fill="#fd9d44"/>
      <path id="Pfad_28520" data-name="Pfad 28520" d="M45.024,189.386a3.968,3.968,0,0,1,1.7,3.453,4.25,4.25,0,0,1-1.938,3.711c-2.739,1.861-11.169,7.052-11.169,7.052a3.041,3.041,0,0,1-4.669-2.59v-.778a.872.872,0,0,0-.869-.876h-12.6a3.49,3.49,0,0,1-3.476-3.5v2.268a3.49,3.49,0,0,0,3.476,3.5H28.944v1.941a3.041,3.041,0,0,0,4.669,2.59l11.432-7.305a5.62,5.62,0,0,0-.021-9.465Z" transform="translate(-12 -181.86)"/>
    </g>
    <g id="Outline" transform="translate(6 80.265)">
      <path id="Pfad_28521" data-name="Pfad 28521" d="M39.7,87.86l-11.09-7.018a3.629,3.629,0,0,0-3.739-.115A3.678,3.678,0,0,0,22.944,84v.994a.435.435,0,0,1-.431.438H9.914A3.932,3.932,0,0,0,6,89.369v7.6a3.932,3.932,0,0,0,3.914,3.942h13.03v1.5a3.461,3.461,0,0,0,1.817,3.078,3.415,3.415,0,0,0,3.526-.12l11.432-7.305a6.058,6.058,0,0,0-.022-10.2ZM22.944,100.032H9.914a3.053,3.053,0,0,1-3.028-2.84,3.9,3.9,0,0,0,3.028,1.448h12.6a.435.435,0,0,1,.431.438Zm-.431-2.268H9.914A3.055,3.055,0,0,1,6.876,94.7V89.37A3.055,3.055,0,0,1,9.914,86.3h12.6A1.312,1.312,0,0,0,23.82,84.99V84a2.813,2.813,0,0,1,1.47-2.5,2.765,2.765,0,0,1,2.848.088c.129.084,11.069,7,11.189,7.083a3.66,3.66,0,0,1,1.393,3.023,3.824,3.824,0,0,1-1.746,3.343c-2.7,1.834-11.069,6.988-11.153,7.04l-.006,0a2.55,2.55,0,0,1-2.633.09,2.6,2.6,0,0,1-1.362-2.31v-.777a1.312,1.312,0,0,0-1.307-1.314Zm19.111-4.807a5.141,5.141,0,0,1-2.377,4.368l-11.432,7.305a2.551,2.551,0,0,1-2.633.09,2.6,2.6,0,0,1-1.362-2.31v-.223a3.535,3.535,0,0,0,.942.746,3.415,3.415,0,0,0,3.523-.118c.2-.124,8.486-5.227,11.184-7.06a4.635,4.635,0,0,0,2.107-3.509,5.279,5.279,0,0,1,.049.711Z" transform="translate(-6 -80.265)"/>
    </g>
  </g>
</svg>
