<svg id="svgexport-1_1_" data-name="svgexport-1 (1)" xmlns="http://www.w3.org/2000/svg" width="22.986" height="27.328" viewBox="0 0 22.986 27.328">
  <path id="Pfad_31129" data-name="Pfad 31129" d="M39.8,9.748a17.272,17.272,0,0,0,2.969-1.874,1.555,1.555,0,0,1,.134,1.2,1.327,1.327,0,0,1-.44.594,2,2,0,0,1-.8.368A2.633,2.633,0,0,1,39.8,9.748m.145,4.277,1.108.64c-2.262,1.268-2.878,3.623-3.608,5.916-.731-2.293-1.346-4.648-3.608-5.916l1.108-.64a.543.543,0,0,0,.35-.533c-.1-2.148.478-3.1,1.261-3.694a1.392,1.392,0,0,1,1.778,0c.782.6,1.362,1.546,1.261,3.694a.543.543,0,0,0,.35.533ZM37.442,0a10.023,10.023,0,0,1,3.679.767,9.253,9.253,0,0,1,2.144,1.308,10.362,10.362,0,0,1,.8.736A3.348,3.348,0,0,0,46.33,1.287c-.841,2.757-4.679,6.014-7.336,7.26l0,0a2.471,2.471,0,0,0-3.1,0l0,0c-2.657-1.246-6.5-4.5-7.336-7.26a3.347,3.347,0,0,0,2.262,1.524,10.413,10.413,0,0,1,.8-.736A9.253,9.253,0,0,1,33.762.767,10.024,10.024,0,0,1,37.442,0M35.087,9.748a17.272,17.272,0,0,1-2.968-1.874,1.556,1.556,0,0,0-.134,1.2,1.329,1.329,0,0,0,.44.594,2,2,0,0,0,.8.368,2.632,2.632,0,0,0,1.862-.292" transform="translate(-25.949)" fill-rule="evenodd"/>
  <path id="Pfad_31130" data-name="Pfad 31130" d="M17.984,56.75a14.885,14.885,0,0,0,1.52-1.833l.211.4a9.208,9.208,0,0,1,1.033,4.241v2.42l.013,1.255a19.925,19.925,0,0,0,2.225,9.048l-3.158-2.547-2.235,3.627-2.348-2.21-3.752,6.088L7.741,71.147l-2.348,2.21L3.159,69.731,0,72.278A19.927,19.927,0,0,0,2.225,63.23l.013-1.255v-2.42A9.205,9.205,0,0,1,3.27,55.315l.211-.4A14.883,14.883,0,0,0,5,56.75l-.183.381a3.045,3.045,0,0,0-.2,2.353,2.822,2.822,0,0,0,.926,1.273,3.5,3.5,0,0,0,1.4.653,3.986,3.986,0,0,0,1,.094,8.094,8.094,0,0,0-.114,1.366L4.853,64.592l2.3,1.289a3.825,3.825,0,0,1,.523.353c1.9,1.7,3.035,6.737,3.818,9.2.783-2.459,1.923-7.494,3.818-9.2a3.818,3.818,0,0,1,.523-.353l2.3-1.289-2.979-1.721A8.094,8.094,0,0,0,15.04,61.5a3.987,3.987,0,0,0,1-.094,3.5,3.5,0,0,0,1.4-.653,2.822,2.822,0,0,0,.926-1.273,3.045,3.045,0,0,0-.2-2.353l-.183-.381Z" transform="translate(0 -49.908)" fill-rule="evenodd"/>
</svg>
