<svg xmlns="http://www.w3.org/2000/svg" width="23.766" height="27.328" viewBox="0 0 23.766 27.328">
  <path id="dextools" d="M8.838,1.545c-1.628.848-2.96,1.566-2.96,1.595,0,.075,3.907,2.054,4.046,2.049a7.6,7.6,0,0,0,1.017-.468l.9-.464.985.506.985.507,1.613-.725a14.144,14.144,0,0,0,2.644-1.252c-.053-.053-.925-.522-3.29-1.767C13.637.923,12.528.333,12.315.214A2.222,2.222,0,0,0,11.863,0c-.036,0-1.4.7-3.025,1.545ZM1.7,5.243,0,6.118V9.96C0,12.073.025,13.8.053,13.8s.861-.361,1.853-.8l1.8-.8V8.146l.881.48q1.019.555,2.038,1.107l1.157.626.515-.233q.484-.219.967-.443c.249-.116.859-.391,1.356-.611a11.338,11.338,0,0,0,1.023-.492c.087-.067-.97-.651-3.909-2.16-2.215-1.138-4.1-2.065-4.186-2.06A18.407,18.407,0,0,0,1.7,5.243Zm16.679.246c-1.154.521-2.1.968-2.1.994s.628.4,1.4.831a15.347,15.347,0,0,1,1.4.836,15.589,15.589,0,0,1-1.514.734L12.883,11l-5.83,2.635L4.116,14.959c-3,1.356-3.819,1.732-3.932,1.8s-.139.443-.16,2.339L0,21.356l1.515.772,1.515.772,2.1-.948c1.156-.522,2.1-.976,2.1-1.009a1.676,1.676,0,0,0-.475-.309c-.261-.137-.8-.44-1.2-.673a9.421,9.421,0,0,0-.881-.476c-.087-.028-.157-.078-.156-.11s.927-.472,2.056-.977c2.194-.981,3.873-1.737,7.477-3.367q2.419-1.093,4.837-2.184c1.415-.64,3.062-1.387,3.659-1.66l1.085-.5L23.663,8.4l.024-2.287L22.15,5.326c-.845-.434-1.568-.788-1.606-.787s-1.013.429-2.167.95Zm4.85,8.251c-.227.111-.674.318-.994.46s-.928.417-1.351.61l-.768.35L20.1,17.168a13.712,13.712,0,0,1-.09,2c-.091-.014-1.531-.752-2.978-1.528-1.045-.56-1.11-.582-1.356-.46-.142.07-.99.451-1.885.846s-1.656.743-1.692.775,1.765,1.008,4,2.169l4.067,2.112,1.737-.9a19.549,19.549,0,0,0,1.805-1c.084-.128.077-7.657-.007-7.647a4.08,4.08,0,0,0-.473.208Zm-9.621,8.838-.9.389c-.91.394-.731.407-1.813-.132-.721-.359-1.031-.469-1.166-.416-.1.04-.972.432-1.935.87s-1.784.8-1.825.8c-.4,0,.268.4,2.859,1.709l3.039,1.533L13.14,26.7c.7-.347,2.122-1.043,3.153-1.545s1.861-.927,1.845-.943-.879-.459-1.919-.985l-1.891-.956Z" transform="translate(0 0)" fill-rule="evenodd"/>
</svg>
