<svg xmlns="http://www.w3.org/2000/svg" width="32.987" height="27.328" viewBox="0 0 32.987 27.328">
  <path id="Path-3" d="M99.035,165.879q13.278-5.785,17.708-7.628c8.433-3.507,10.185-4.117,11.327-4.137a2,2,0,0,1,1.177.353,2.4,2.4,0,0,1,.483,2.018c-.457,4.8-2.434,16.453-3.44,21.831-.426,2.275-1.264,3.038-2.076,3.113-1.763.162-3.1-1.165-4.81-2.285-2.672-1.752-4.182-2.842-6.776-4.552-3-1.976-1.054-3.061.654-4.836.447-.464,8.216-7.531,8.367-8.172a.62.62,0,0,0-.141-.537.7.7,0,0,0-.629-.061q-.4.091-12.808,8.466a5.764,5.764,0,0,1-3.293,1.216,21.688,21.688,0,0,1-4.72-1.117c-1.9-.618-3.413-.945-3.281-1.995q.1-.82,2.259-1.678Z" transform="translate(-96.768 -154.114)" fill-rule="evenodd"/>
</svg>
